/* XPM */
static char * magnify_minus_xpm[] = {
"16 16 9 1",
" 	c None",
".	c #000000",
"+	c #282828",
"@	c #9C9C9C",
"#	c #E2E2E2",
"$	c #FCFCFC",
"%	c #565656",
"&	c #F9F9F9",
"*	c #FFFFFF",
"    .....       ",
"  .+@#$#@+.     ",
" .%&*****&%.    ",
" +&*******&+    ",
".@*********@.   ",
".#*********#.   ",
".$*.......*$.   ",
".#*********#.   ",
".@*********@.   ",
" +&*******&+    ",
" .%&*****&%..   ",
"  .+@#$#@+....  ",
"    ..... ..... ",
"           .....",
"            ... ",
"             .  "};
