/* XPM */
static char * trash_2_xpm[] = {
"37 37 553 2",
"  	c None",
". 	c #5D5D72",
"+ 	c #5C5C71",
"@ 	c #5B5B70",
"# 	c #5B5B6F",
"$ 	c #6D6D7E",
"% 	c #81818E",
"& 	c #8F8F97",
"* 	c #9A9AA0",
"= 	c #9B9BA0",
"- 	c #9E9EA2",
"; 	c #A2A3A6",
"> 	c #A3A6A7",
", 	c #A8A8AB",
"' 	c #9C9DA0",
") 	c #929397",
"! 	c #84858C",
"~ 	c #767680",
"{ 	c #686976",
"] 	c #5D5D70",
"^ 	c #59596D",
"/ 	c #5A5A6E",
"( 	c #5A5A6F",
"_ 	c #666679",
": 	c #8B8C96",
"< 	c #909195",
"[ 	c #9FA2A3",
"} 	c #ABADAE",
"| 	c #B3B3B5",
"1 	c #BCBCBC",
"2 	c #B9B9B9",
"3 	c #86888A",
"4 	c #707476",
"5 	c #696D6F",
"6 	c #777A7C",
"7 	c #A2A4A7",
"8 	c #9FA1A3",
"9 	c #929595",
"0 	c #85898B",
"a 	c #7C7E7F",
"b 	c #6A6C70",
"c 	c #6B6D74",
"d 	c #5C5C6D",
"e 	c #57576B",
"f 	c #58586C",
"g 	c #727280",
"h 	c #B8B8B6",
"i 	c #C4C4C1",
"j 	c #C7C5C2",
"k 	c #C8C7C5",
"l 	c #BCBBB9",
"m 	c #B6B5B5",
"n 	c #A5A6A6",
"o 	c #7F8386",
"p 	c #616568",
"q 	c #5C6065",
"r 	c #6C7174",
"s 	c #85898C",
"t 	c #989B9E",
"u 	c #898D90",
"v 	c #7E8184",
"w 	c #868789",
"x 	c #737578",
"y 	c #737779",
"z 	c #6D7172",
"A 	c #535461",
"B 	c #545467",
"C 	c #56566A",
"D 	c #58586D",
"E 	c #636569",
"F 	c #9C9D9C",
"G 	c #9E9E9C",
"H 	c #858685",
"I 	c #838583",
"J 	c #949592",
"K 	c #898A88",
"L 	c #828484",
"M 	c #727577",
"N 	c #747879",
"O 	c #808485",
"P 	c #797D80",
"Q 	c #7A7E80",
"R 	c #74787A",
"S 	c #6B6F71",
"T 	c #696C6F",
"U 	c #686C6F",
"V 	c #585D5F",
"W 	c #4A4E51",
"X 	c #626768",
"Y 	c #515556",
"Z 	c #41464B",
"` 	c #4E4E5F",
" .	c #515164",
"..	c #555568",
"+.	c #484B51",
"@.	c #484E50",
"#.	c #5A5F60",
"$.	c #8B8D8A",
"%.	c #A0A09F",
"&.	c #878788",
"*.	c #818383",
"=.	c #818483",
"-.	c #858785",
";.	c #878887",
">.	c #868686",
",.	c #797B7A",
"'.	c #727473",
").	c #6B6E6D",
"!.	c #676969",
"~.	c #656967",
"{.	c #4D5255",
"].	c #313B40",
"^.	c #2F393F",
"/.	c #2C3137",
"(.	c #464656",
"_.	c #4B4B5C",
":.	c #505063",
"<.	c #555569",
"[.	c #58596A",
"}.	c #4A5152",
"|.	c #63696A",
"1.	c #737979",
"2.	c #808384",
"3.	c #8A8D8D",
"4.	c #828687",
"5.	c #75797B",
"6.	c #696C6C",
"7.	c #636666",
"8.	c #4D5151",
"9.	c #525759",
"0.	c #505453",
"a.	c #4B4F4F",
"b.	c #494D4E",
"c.	c #474F53",
"d.	c #4A5359",
"e.	c #495155",
"f.	c #4D5050",
"g.	c #454747",
"h.	c #2C3236",
"i.	c #3A3A46",
"j.	c #3F3F4E",
"k.	c #454555",
"l.	c #4C4C5D",
"m.	c #525265",
"n.	c #3D4548",
"o.	c #4E5658",
"p.	c #686D6C",
"q.	c #969795",
"r.	c #C4C4C2",
"s.	c #E1E2E0",
"t.	c #EAEAEA",
"u.	c #E2E2E2",
"v.	c #B0B2B3",
"w.	c #7A7D7F",
"x.	c #636667",
"y.	c #565A5B",
"z.	c #606362",
"A.	c #686A66",
"B.	c #656662",
"C.	c #636561",
"D.	c #5C5E5C",
"E.	c #555654",
"F.	c #484D4E",
"G.	c #323B41",
"H.	c #373743",
"I.	c #3A3A47",
"J.	c #414150",
"K.	c #494959",
"L.	c #505062",
"M.	c #565669",
"N.	c #4E5456",
"O.	c #4A5051",
"P.	c #666D6E",
"Q.	c #8C9192",
"R.	c #C1C2C0",
"S.	c #CECFCB",
"T.	c #D4D2CF",
"U.	c #C9C7C4",
"V.	c #AAA9A6",
"W.	c #8B8B89",
"X.	c #7A7C79",
"Y.	c #6F716E",
"Z.	c #797975",
"`.	c #7E7E78",
" +	c #7E7C77",
".+	c #7A7972",
"++	c #73726C",
"@+	c #6B6A65",
"#+	c #525453",
"$+	c #35393D",
"%+	c #33333F",
"&+	c #373744",
"*+	c #3F3F4D",
"=+	c #474757",
"-+	c #4F4F61",
";+	c #555A5C",
">+	c #676C6C",
",+	c #616767",
"'+	c #B4B4B0",
")+	c #D3D2CE",
"!+	c #E6E5E2",
"~+	c #E4E2DF",
"{+	c #C0C0BD",
"]+	c #898E8E",
"^+	c #6E7474",
"/+	c #676B6A",
"(+	c #7F807C",
"_+	c #85837E",
":+	c #7D7A75",
"<+	c #797671",
"[+	c #6C6B66",
"}+	c #63635D",
"|+	c #545651",
"1+	c #34393D",
"2+	c #31313C",
"3+	c #3E3E4C",
"4+	c #54575F",
"5+	c #5A5D5E",
"6+	c #575D5D",
"7+	c #8A8D8B",
"8+	c #A1A2A0",
"9+	c #C1C0BF",
"0+	c #CAC9C6",
"a+	c #BDBDBB",
"b+	c #A5A5A2",
"c+	c #7B7D7C",
"d+	c #707270",
"e+	c #626360",
"f+	c #6C6C67",
"g+	c #6D6C67",
"h+	c #716F6A",
"i+	c #6D6B66",
"j+	c #676661",
"k+	c #61615C",
"l+	c #535552",
"m+	c #34393E",
"n+	c #484858",
"o+	c #545862",
"p+	c #545A5B",
"q+	c #5E6464",
"r+	c #7F8382",
"s+	c #949594",
"t+	c #AAABA8",
"u+	c #BDBDB9",
"v+	c #ACABA8",
"w+	c #9F9F9A",
"x+	c #9A9A95",
"y+	c #7D7D78",
"z+	c #777772",
"A+	c #706F6A",
"B+	c #696863",
"C+	c #65645F",
"D+	c #60605B",
"E+	c #525351",
"F+	c #373A40",
"G+	c #31313D",
"H+	c #383844",
"I+	c #40404E",
"J+	c #515163",
"K+	c #57576A",
"L+	c #565764",
"M+	c #555B5D",
"N+	c #626969",
"O+	c #747978",
"P+	c #939493",
"Q+	c #A5A6A2",
"R+	c #B8B9B4",
"S+	c #AFAEA9",
"T+	c #A3A29D",
"U+	c #A09F9A",
"V+	c #81807B",
"W+	c #807F7A",
"X+	c #71706A",
"Y+	c #686863",
"Z+	c #62625C",
"`+	c #525352",
" @	c #383A40",
".@	c #32323E",
"+@	c #383845",
"@@	c #4A4A5B",
"#@	c #595A69",
"$@	c #585E5E",
"%@	c #646969",
"&@	c #727675",
"*@	c #999B97",
"=@	c #A9A9A4",
"-@	c #BFBEB9",
";@	c #B8B7B2",
">@	c #A7A6A1",
",@	c #8C8984",
"'@	c #8A8984",
")@	c #71716B",
"!@	c #666762",
"~@	c #6F6C67",
"{@	c #696762",
"]@	c #64645F",
"^@	c #515353",
"/@	c #36383F",
"(@	c #393947",
"_@	c #424251",
":@	c #535365",
"<@	c #5B5C6D",
"[@	c #5F6363",
"}@	c #696D6C",
"|@	c #737675",
"1@	c #A1A29B",
"2@	c #B0AFAA",
"3@	c #C5C4BF",
"4@	c #C1BDB9",
"5@	c #B0ACA8",
"6@	c #B0ACA7",
"7@	c #96918D",
"8@	c #95908C",
"9@	c #74736E",
"0@	c #6E6C67",
"a@	c #666661",
"b@	c #4F5453",
"c@	c #35363E",
"d@	c #434352",
"e@	c #535366",
"f@	c #626565",
"g@	c #707371",
"h@	c #777876",
"i@	c #9E9F99",
"j@	c #ACACA7",
"k@	c #C1C0BB",
"l@	c #C2BEBA",
"m@	c #BAB5B0",
"n@	c #B8B2AD",
"o@	c #9D9893",
"p@	c #9B9692",
"q@	c #797873",
"r@	c #73706B",
"s@	c #6E6D68",
"t@	c #33353E",
"u@	c #343440",
"v@	c #3B3B48",
"w@	c #444454",
"x@	c #4D4D5E",
"y@	c #6B6D6D",
"z@	c #7B7B78",
"A@	c #969791",
"B@	c #A7A6A0",
"C@	c #C6C2BB",
"D@	c #C9C4BF",
"E@	c #C1BCB6",
"F@	c #BDB8B2",
"G@	c #A5A09B",
"H@	c #A29D98",
"I@	c #8A8681",
"J@	c #86827D",
"K@	c #7D7974",
"L@	c #7C7973",
"M@	c #73716D",
"N@	c #6A6A65",
"O@	c #505353",
"P@	c #33343E",
"Q@	c #3C3C4A",
"R@	c #454554",
"S@	c #545468",
"T@	c #6F7072",
"U@	c #7D7D7B",
"V@	c #7D7E7A",
"W@	c #959690",
"X@	c #A7A5A0",
"Y@	c #CCC7C1",
"Z@	c #CEC8C2",
"`@	c #C4BEB8",
" #	c #C0BBB6",
".#	c #AAA5A1",
"+#	c #A8A39D",
"@#	c #918C86",
"##	c #8E8984",
"$#	c #827D79",
"%#	c #7F7C77",
"&#	c #767570",
"*#	c #6B6B67",
"=#	c #4C504F",
"-#	c #33333E",
";#	c #353541",
">#	c #3D3D4B",
",#	c #4E4E60",
"'#	c #6D6E72",
")#	c #80817C",
"!#	c #7B7C79",
"~#	c #989792",
"{#	c #A8A6A1",
"]#	c #D0C9C3",
"^#	c #D3CCC6",
"/#	c #C7C1BB",
"(#	c #C3BEB8",
"_#	c #AEA9A3",
":#	c #ACA7A1",
"<#	c #96918B",
"[#	c #948F89",
"}#	c #88837D",
"|#	c #83807B",
"1#	c #7A7974",
"2#	c #6F6D69",
"3#	c #484B4C",
"4#	c #30303B",
"5#	c #363642",
"6#	c #63636C",
"7#	c #797A75",
"8#	c #7F817B",
"9#	c #9A9994",
"0#	c #ABA8A3",
"a#	c #D5CEC8",
"b#	c #C7C2BC",
"c#	c #C4BFB9",
"d#	c #B1ACA6",
"e#	c #9B9690",
"f#	c #99948E",
"g#	c #8C8781",
"h#	c #89847E",
"i#	c #807D76",
"j#	c #716F6B",
"k#	c #444749",
"l#	c #60606B",
"m#	c #73746F",
"n#	c #858580",
"o#	c #9B9994",
"p#	c #D8D1CB",
"q#	c #B2ADA7",
"r#	c #B0ABA5",
"s#	c #9D9892",
"t#	c #9C9791",
"u#	c #8B8681",
"v#	c #848079",
"w#	c #70706B",
"x#	c #414447",
"y#	c #484859",
"z#	c #60606D",
"A#	c #777872",
"B#	c #888883",
"C#	c #9E9B97",
"D#	c #D6CFC9",
"E#	c #DAD3CD",
"F#	c #B3AEA8",
"G#	c #AFAAA4",
"H#	c #A09B95",
"I#	c #9E9993",
"J#	c #908B85",
"K#	c #8D8884",
"L#	c #86827C",
"M#	c #6F6F6B",
"N#	c #3D3F44",
"O#	c #40404F",
"P#	c #4A4A5A",
"Q#	c #525264",
"R#	c #5F5F6F",
"S#	c #7C7E77",
"T#	c #8B8A85",
"U#	c #9E9C97",
"V#	c #ABA9A4",
"W#	c #DCD4CF",
"X#	c #C4C0BA",
"Y#	c #A19C96",
"Z#	c #938E88",
"`#	c #908B86",
" $	c #87837D",
".$	c #6E6E6A",
"+$	c #3A3C41",
"@$	c #393946",
"#$	c #5C5C6F",
"$$	c #82817D",
"%$	c #8D8C87",
"&$	c #9D9B96",
"*$	c #ADAAA5",
"=$	c #D2CCC6",
"-$	c #DDD6D0",
";$	c #A39E98",
">$	c #97928C",
",$	c #928D87",
"'$	c #88847D",
")$	c #6B6C68",
"!$	c #383A41",
"~$	c #858481",
"{$	c #8F8E89",
"]$	c #9C9A95",
"^$	c #AEABA6",
"/$	c #DDD5D0",
"($	c #C2BEB7",
"_$	c #BFBAB4",
":$	c #A49F99",
"<$	c #A29D97",
"[$	c #9A958F",
"}$	c #6B6A67",
"|$	c #373840",
"1$	c #34343F",
"2$	c #434353",
"3$	c #878686",
"4$	c #92918C",
"5$	c #C6C1BB",
"6$	c #DBD3CE",
"7$	c #A5A09A",
"8$	c #676765",
"9$	c #33343D",
"0$	c #3B3B49",
"a$	c #4D4D5F",
"b$	c #858385",
"c$	c #94938E",
"d$	c #BFBBB5",
"e$	c #C0BAB4",
"f$	c #BCB7B1",
"g$	c #A6A19B",
"h$	c #95908A",
"i$	c #8B8881",
"j$	c #5A5B59",
"k$	c #77777A",
"l$	c #979690",
"m$	c #9C9B96",
"n$	c #B0ADA8",
"o$	c #BDB9B4",
"p$	c #D3CBC6",
"q$	c #BEB9B3",
"r$	c #BBB6B0",
"s$	c #A7A29C",
"t$	c #8C8881",
"u$	c #464748",
"v$	c #5B5B6B",
"w$	c #888884",
"x$	c #A09E98",
"y$	c #AFAAA6",
"z$	c #BDB6B0",
"A$	c #D0C8C3",
"B$	c #BAB5AF",
"C$	c #7E7A76",
"D$	c #34353B",
"E$	c #575768",
"F$	c #7C7C7D",
"G$	c #A7A39D",
"H$	c #C1BAB5",
"I$	c #D0C8C1",
"J$	c #BDB8B3",
"K$	c #B5B0AB",
"L$	c #AAA59F",
"M$	c #9E9A93",
"N$	c #777571",
"O$	c #3D3D43",
"P$	c #424250",
"Q$	c #545461",
"R$	c #79777D",
"S$	c #9D9998",
"T$	c #A3A09E",
"U$	c #9F9B99",
"V$	c #999591",
"W$	c #8D8B86",
"X$	c #797876",
"Y$	c #5C595C",
"Z$	c #3E3D44",
"`$	c #49495A",
" %	c #4C4C5E",
". . . . . . . . . . . . . . + + + + + + + + + + + + + + . . . . . . . . . ",
". . . . . . . . . . . + + + + @ @ @ @ # # # # # @ @ @ @ + + + . . . . . . ",
". . . . . . . . . + . $ % & * = - ; > , ' ) ! ~ { ] ^ / ( # @ + + . . . . ",
". . . . . . . + _ : < [ } | 1 2 3 4 5 6 7 8 9 0 a b c d e f / # @ + + . . ",
". . . . . . . g h i j k l m 2 n o p q r s t u v w x y z A B C D ( @ + . . ",
". . . . . . + E F G H I J K L M N O P Q R S T U V W X Y Z `  ...f ( @ + . ",
". . . . . . + +.@.#.$.%.&.*.=.-.;.>.,.,.'.).!.~.!.{.].^./.(._.:.<.D @ + + ",
". . . . . + + [.}.|.1.2.3.4.5.6.7.8.9.0.a.b.c.d.e.f.g.h.i.j.k.l.m.e ( + + ",
". . . . . + @ / n.o.p.q.r.s.t.u.v.w.x.y.z.A.B.C.D.E.F.G.H.I.J.K.L.M./ @ + ",
". . . . . + @ # N.O.P.Q.R.S.T.U.V.W.X.Y.Z.`. +.+++@+#+$+%+&+*+=+-+<./ @ + ",
". . . . . + @ / ;+>+,+=.'+)+!+~+{+]+^+/+(+_+:+<+[+}+|+1+2+H.3+=+-+M./ @ + ",
". . . . . + @ / 4+5+6+7+8+9+0+a+b+c+d+e+f+g+h+i+j+k+l+m+2+H.*+n+L.C / @ + ",
". . . . . + + ( o+p+q+r+s+t+u+v+w+x+y+z+A+B+@+[+C+D+E+F+G+H+I+K.J+K+( + + ",
". . . . . . + # L+M+N+O+P+Q+R+S+T+U+V+W+X+Y+@+[+j+Z+`+ @.@+@J.@@m.e # + . ",
". . . . . . + # #@$@%@&@*@=@-@;@>@>@,@'@)@!@B+~@{@]@^@/@%+(@_@_.:@f # + . ",
". . . . . . + @ <@[@}@|@1@2@3@4@5@6@7@8@9@[+B+0@@+a@b@c@%+I.d@l.e@f @ + . ",
". . . . . . + @ # f@g@h@i@j@k@l@m@n@o@p@ +q@h+r@s@Y+0.t@u@v@w@x@B D @ + . ",
". . . . . . + @ / y@h@z@A@B@C@D@E@F@G@H@I@J@K@L@M@N@O@P@u@Q@R@` S@^ @ + . ",
". . . . . . + @ / T@U@V@W@X@Y@Z@`@ #.#+#@###$#%#&#*#=#-#;#>#(.,#<.^ @ + . ",
". . . . . . + + ( '#)#!#~#{#]#^#/#(#_#:#<#[#}#|#1#2#3#4#5#3+=+-+M./ @ + . ",
". . . . . . . + ( 6#7#8#9#0#^#a#b#c#d#_#e#f#g#h#i#j#k#2+H.3+n+L.C / + + . ",
". . . . . . . + # l#m#n#o#0#a#p#b#(#q#r#s#t###u#v#w#x#2+H.j.y#J+K+( + + . ",
". . . . . . . + @ z#A#B#C#0#D#E#C@c#F#G#H#I#J#K#L#M#N#G+H+O#P#Q#e ( + . . ",
". . . . . . . + @ R#S#T#U#V#D#W#X#(#F#G#Y#I#Z#`# $.$+$.@@$J.@@m.f # + . . ",
". . . . . . . + @ #$$$%$&$*$=$-$c#E@F#G#;$Y#>$,$'$)$!$%+(@_@_.e@f # + . . ",
". . . . . . . + @ / ~${$]$^$Y@/$($_$q#G#:$<$[$[#u#}$|$1$v@2$l.e@D @ + . . ",
". . . . . . . + @ / 3$4$o#^$5$6$E@F@d#_#7$<$e#Z#u#8$9$u@0$w@a$B D @ + . . ",
". . . . . . . + + / b$c$o#^$d$D#e$f$d#_#g$;$s#h$i$j$2+;#Q@k.,#..^ @ + . . ",
". . . . . . . + + ( k$l$m$n$o$p$q$r$d#G#s$;$I#>$t$u$2+5#3+=+-+<./ @ + . . ",
". . . . . . . . + # v$w$x$y$z$A$f$B$q#_#+#:$Y#[$C$D$G+&+*+n+L.C / @ + . . ",
". . . . . . . . + @ D E$F$G$H$I$J$K$q#:#L$7$M$N$O$4#1$(@P$@@Q#e ( + + . . ",
". . . . . . . . + @ ^ <.-+Q$R$S$T$U$V$W$X$Y$Z$2+2+%+&+3+R@x@e@f # + . . . ",
". . . . . . . . + + ( e m.l.k.*+I.H.u@%+-#-#%+u@5#@$>#d@P#L.M.^ @ + . . . ",
". . . . . . . . . + @ ^ M.J+_.(.J.3+0$I.@$@$(@v@>#O#w@`$-+B f ( + + . . . ",
". . . . . . . . . + + ( f <. .a$P#(.w@d@P$P$_@2$k.n+l.L.B e / @ + . . . . ",
". . . . . . . . . . + @ ( D C B J+-+x@_._._._. %,#L.m.<.f / @ + + . . . . ",
". . . . . . . . . . . + @ # / f K+..B e@m.m.e@e@S@M.e ^ ( @ + + . . . . . "};
