/* XPM */
static char * trash_big_xpm[] = {
"27 33 4 1",
" 	c None",
".	c #000000",
"+	c #B3B3B3",
"@	c #404040",
"        ...........        ",
"    .....+++++++++.....    ",
"  ...+++++++++++++++++...  ",
" ..+++++++.......+++++++.. ",
"..+++++++.+++++++.+++++++..",
".+++++++..+++++++..+++++++.",
".+++++++++++++++++++++++++.",
"..+++++++++++++++++++++++..",
"...+++++++++++++++++++++...",
".+...+++++++++++++++++...+.",
"..++.....+++++++++.....++..",
"...+++++...........+++++...",
".+...+++++++++++++++++...+.",
".+++.....+++++++++.....+++.",
".++++@@+...........++@@+++.",
".++++@@++++++@@++++++@@+++.",
".++++@@++++++@@++++++@@+++.",
".++++@@++++++@@++++++@@+++.",
".++++@@++++++@@++++++@@+++.",
".++++@@++++++@@++++++@@+++.",
".++++@@++++++@@++++++@@+++.",
".++++@@++++++@@++++++@@+++.",
".++++@@++++++@@++++++@@+++.",
".++++@@++++++@@++++++@@+++.",
".++++@@++++++@@++++++@@+++.",
".++++@@++++++@@++++++@@+++.",
".++++@@++++++@@++++++@@+++.",
".++++@@++++++@@++++++@@+++.",
"..+++@@++++++@@++++++@@++..",
" ..++@@++++++@@++++++@@+.. ",
"  ...@@++++++@@++++++@...  ",
"    .....++++@@+++.....    ",
"        ...........        "};
